<?xml version="1.0" ?><svg height="60px" version="1.1" viewBox="0 0 54 60" width="54px" xmlns="http://www.w3.org/2000/svg" xmlns:xlink="http://www.w3.org/1999/xlink"><title/><desc/><defs/><g fill="none" fill-rule="evenodd" id="Page-1" stroke="none" stroke-width="1"><g fill-rule="nonzero" id="021---Icicle"><path d="M30.09033,11.51074 C29.9282257,11.5106681 29.7685554,11.471297 29.625,11.396 L27,10.01562 L24.375,11.396 C24.0380518,11.5730898 23.6297913,11.5435697 23.3218247,11.3198478 C23.0138581,11.096126 22.8595765,10.7169885 22.92383,10.3418 L23.42529,7.419 L21.30176,5.34912 C21.0291632,5.08330341 20.9311149,4.68577813 21.0488411,4.3236897 C21.1665674,3.96160127 21.4796505,3.69774761 21.85645,3.64307 L24.791,3.2168 L26.103,0.55762 C26.2903949,0.240330255 26.6314736,0.0456505233 26.99997,0.0456505233 C27.3684664,0.0456505233 27.7095451,0.240330255 27.89694,0.55762 L29.209,3.2168 L32.14357,3.64307 C32.5203695,3.69774761 32.8334526,3.96160127 32.9511789,4.3236897 C33.0689051,4.68577813 32.9708568,5.08330341 32.69826,5.34912 L30.57471,7.419 L31.07617,10.34185 C31.1259726,10.6324075 31.0450347,10.9301357 30.8549812,11.1554878 C30.6649277,11.38084 30.3851247,11.510853 30.09033,11.51079 L30.09033,11.51074 Z M27,7.88574 C27.1621261,7.8856423 27.3218372,7.92502693 27.46533,8.00049 L28.76221,8.68262 L28.51421,7.23877 C28.4587928,6.91435558 28.566307,6.58342027 28.80181,6.35352 L29.85112,5.33105 L28.40142,5.12061 C28.0754929,5.07328721 27.7937348,4.86858604 27.648,4.57324 L27,3.25977 L26.352,4.57324 C26.2062652,4.86858604 25.9245071,5.07328721 25.59858,5.12061 L24.14888,5.33105 L25.19819,6.35352 C25.433693,6.58342027 25.5412072,6.91435558 25.48579,7.23877 L25.23779,8.68262 L26.53467,8.00049 C26.6781628,7.92502693 26.8378739,7.8856423 27,7.88574 L27,7.88574 Z" fill="#BDDCF3" id="Shape"/><path d="M8.46826,19.87793 L13.9248,23.02838 L9.002,26.27881 C8.77142113,26.4309037 8.70779633,26.7411211 8.85989002,26.9717 C9.01198371,27.2022789 9.32220112,27.2659037 9.55278,27.11381 L14.8933,23.58763 L15.10094,23.7075 C14.6675629,24.7821631 14.7962356,26.001896 15.4443153,26.9624735 C16.092395,27.923051 17.1752437,28.4990231 18.334,28.49951 C19.40869,28.4998858 20.4242488,28.0075958 21.08968,27.1637 L23.29,28.43311 C23.5292,28.5711812 23.8350388,28.4892 23.97311,28.25 C24.1111812,28.0108 24.0292,27.7049612 23.79,27.56689 L21.5776,26.29059 C22.2284368,24.680306 21.5935627,22.8366179 20.0892717,21.9684523 C18.5849807,21.1002867 16.670988,21.4729573 15.60232,22.8421 L15.39297,22.72125 L15.77633,16.3335 C15.7842492,16.2011456 15.7392563,16.0710677 15.6512528,15.9718921 C15.5632493,15.8727166 15.4394467,15.8125705 15.30709,15.80469 C15.0335256,15.7940382 14.800244,16.0010408 14.77828,16.27393 L14.42489,22.16229 L8.96822,19.01172 C8.72903862,18.873821 8.42335768,18.9558419 8.28533639,19.1949528 C8.14731509,19.4340636 8.22917976,19.7397865 8.46822,19.87793 L8.46826,19.87793 Z M18.34426,22.50049 C19.4751879,22.5026999 20.4637441,23.2639625 20.7548106,24.3567952 C21.045877,25.4496278 20.5669331,26.6017463 19.5869271,27.166185 C18.6069211,27.7306238 17.370026,27.5667503 16.570813,26.7665869 C15.7716001,25.9664235 15.6091969,24.7293344 16.1748,23.75 C16.6200531,22.9730967 17.4488034,22.49577 18.34424,22.50049 L18.34426,22.50049 Z" fill="#BDDCF3" id="Shape"/><path d="M45.53174,40.12207 L40.0752,36.97162 L44.99805,33.72119 C45.1472084,33.6228026 45.2325474,33.4523139 45.2219206,33.2739453 C45.2112939,33.0955766 45.1063158,32.9364265 44.9465306,32.8564452 C44.7867455,32.776464 44.5964284,32.7878026 44.44727,32.88619 L39.10675,36.41237 L38.89911,36.2925 C39.5503449,34.6817484 38.9153493,32.8373762 37.4105527,31.9689207 C35.9057561,31.1004653 33.9911112,31.4733767 32.92224,32.8431 L30.71,31.56689 C30.4708,31.4288188 30.1649612,31.5108 30.02689,31.75 C29.8888189,31.9892001 29.9708,32.2950388 30.21,32.43311 L32.42234,33.70941 C31.7766783,35.3216947 32.4141768,37.1634269 33.9184074,38.0315464 C35.4226379,38.8996659 37.3362458,38.5302247 38.40922,37.16455 L38.60703,37.27875 L38.22367,43.6665 C38.2157508,43.7988544 38.2607437,43.9289323 38.3487472,44.0281079 C38.4367507,44.1272834 38.5605533,44.1874295 38.69291,44.19531 L38.72318,44.19631 C38.9875551,44.1960571 39.2060237,43.9899989 39.22172,43.72609 L39.57511,37.83773 L45.03178,40.9883 C45.2709614,41.126199 45.5766423,41.0441781 45.7146636,40.8050672 C45.8526849,40.5659564 45.7708202,40.2602335 45.53178,40.12209 L45.53174,40.12207 Z M34.41016,37.165 C33.5344602,36.6594253 33.049543,35.6761199 33.1815283,34.6736052 C33.3135136,33.6710904 34.0364086,32.8467986 35.0131229,32.5851021 C35.9898372,32.3234056 37.0280197,32.6758421 37.6435593,33.4780683 C38.2590989,34.2802945 38.3307732,35.3743224 37.82516,36.25 C37.1335179,37.4440191 35.6061317,37.8532602 34.41016,37.165 Z" fill="#BDDCF3" id="Shape"/><path d="M21.5777,33.70941 L23.79,32.43311 C24.0292,32.2950388 24.1111811,31.9892001 23.97311,31.75 C23.8350388,31.5108 23.5292,31.4288188 23.29,31.56689 L21.07778,32.84314 C20.010316,31.4695697 18.0930952,31.0941637 16.5864149,31.9636976 C15.0797346,32.8332315 14.4455942,34.6810765 15.10085,36.29254 L14.89321,36.41241 L9.55269,32.88623 C9.32211112,32.7341363 9.0118937,32.7977611 8.8598,33.02834 C8.7077063,33.2589189 8.77133112,33.5691363 9.00191,33.72123 L13.92476,36.97166 L8.46822,40.12211 C8.22917976,40.2602535 8.14731509,40.5659764 8.28533639,40.8050872 C8.42335768,41.0441981 8.72903862,41.126219 8.96822,40.98832 L14.42489,37.83775 L14.77828,43.72611 C14.7939763,43.9900189 15.0124449,44.1960771 15.27682,44.19633 L15.30709,44.19533 C15.4394467,44.1874495 15.5632493,44.1273034 15.6512528,44.0281279 C15.7392563,43.9289523 15.7842492,43.7988744 15.77633,43.66652 L15.393,37.27875 L15.59081,37.16455 C16.6628978,38.5326506 18.5781249,38.9036593 20.0835346,38.0348594 C21.5889442,37.1660594 22.2258956,35.3221409 21.57769,33.70941 L21.5777,33.70941 Z M19.58984,37.165 C18.7141624,37.6706132 17.6201345,37.5989389 16.8179083,36.9833993 C16.0156821,36.3678597 15.6632456,35.3296772 15.9249421,34.3529629 C16.1866386,33.3762486 17.0109304,32.6533536 18.0134452,32.5213683 C19.0159599,32.389383 19.9992653,32.8743002 20.50484,33.75 C21.1930412,34.9459794 20.7838119,36.4733217 19.58984,37.165 L19.58984,37.165 Z" fill="#BDDCF3" id="Shape"/><path d="M32.42236,26.29059 L30.21,27.56689 C29.9708,27.7049612 29.8888188,28.0107999 30.02689,28.25 C30.1649612,28.4892 30.4708,28.5711812 30.71,28.43311 L32.9105,27.16364 C33.7294862,28.2050875 35.0664392,28.6946541 36.3642974,28.4283545 C37.6621557,28.1620549 38.6982979,27.1855673 39.041,25.90576 C39.2342752,25.1770842 39.1844491,24.4052378 38.89909,23.70746 L39.10673,23.58759 L44.44725,27.11377 C44.6778289,27.2658637 44.9880463,27.2022389 45.14014,26.97166 C45.2922337,26.7410811 45.2286089,26.4308637 44.99803,26.27877 L40.0752,23.02838 L45.53174,19.87793 C45.7707802,19.7397865 45.8526449,19.4340636 45.7146236,19.1949528 C45.5766023,18.9558419 45.2709214,18.873821 45.03174,19.01172 L39.57507,22.16229 L39.22168,16.27393 C39.2017302,16.0000409 38.9671875,15.7919193 38.69287,15.80469 C38.5605133,15.8125705 38.4367107,15.8727166 38.3487072,15.9718921 C38.2607037,16.0710677 38.2157108,16.2011456 38.22363,16.3335 L38.60699,22.72125 L38.39764,22.8421 C37.328972,21.4729573 35.4149793,21.1002867 33.9106883,21.9684523 C32.4063973,22.8366179 31.7715232,24.680306 32.42236,26.29059 Z M34.41016,22.83496 C35.2858376,22.3293468 36.3798655,22.4010211 37.1820917,23.0165607 C37.9843179,23.6321003 38.3367544,24.6702828 38.0750579,25.6469971 C37.8133614,26.6237114 36.9890696,27.3466064 35.9865548,27.4785917 C34.9840401,27.610577 34.0007347,27.1256598 33.49516,26.24996 C32.8068149,25.0540119 33.2160752,23.5265722 34.41016,22.835 L34.41016,22.83496 Z" fill="#BDDCF3" id="Shape"/><path d="M33.22363,46.55273 L27.5,43.69092 L27.5,43.44946 C29.2202167,43.2085242 30.4999941,41.7370076 30.4999941,40 C30.4999941,38.2629924 29.2202167,36.7914758 27.5,36.55054 L27.5,34 C27.5,33.7238576 27.2761424,33.5 27,33.5 C26.7238576,33.5 26.5,33.7238576 26.5,34 L26.5,36.55054 C24.7797833,36.7914758 23.5000059,38.2629924 23.5000059,40 C23.5000059,41.7370076 24.7797833,43.2085242 26.5,43.44946 L26.5,43.69092 L20.77637,46.55273 C20.5293496,46.6762374 20.4292226,46.9766096 20.55273,47.22363 C20.6762375,47.4706504 20.9766096,47.5707774 21.22363,47.44727 L26.5,44.80908 L26.5,51.10986 C26.5,51.3860024 26.7238576,51.60986 27,51.60986 C27.2761424,51.60986 27.5,51.3860024 27.5,51.10986 L27.5,44.80908 L32.77637,47.44727 C33.0233904,47.5707774 33.3237626,47.4706504 33.44727,47.22363 C33.5707774,46.9766096 33.4706504,46.6762374 33.22363,46.55273 L33.22363,46.55273 Z M24.5,40 C24.5,38.6192881 25.6192881,37.5 27,37.5 C28.3807119,37.5 29.5,38.6192881 29.5,40 C29.5,41.3807119 28.3807119,42.5 27,42.5 C25.6199597,42.4983799 24.5016201,41.3800403 24.5,40 L24.5,40 Z" fill="#BDDCF3" id="Shape"/><path d="M20.77637,13.44727 L26.5,16.30908 L26.5,16.55054 C24.7797833,16.7914758 23.5000059,18.2629924 23.5000059,20 C23.5000059,21.7370076 24.7797833,23.2085242 26.5,23.44946 L26.5,26 C26.5,26.2761424 26.7238576,26.5 27,26.5 C27.2761424,26.5 27.5,26.2761424 27.5,26 L27.5,23.44946 C29.2202167,23.2085242 30.4999941,21.7370076 30.4999941,20 C30.4999941,18.2629924 29.2202167,16.7914758 27.5,16.55054 L27.5,16.30908 L33.22363,13.44727 C33.4706504,13.3237626 33.5707774,13.0233904 33.44727,12.77637 C33.3237626,12.5293496 33.0233904,12.4292226 32.77637,12.55273 L27.5,15.19092 L27.5,8.89014 C27.5,8.61399763 27.2761424,8.39014 27,8.39014 C26.7238576,8.39014 26.5,8.61399763 26.5,8.89014 L26.5,15.19092 L21.22363,12.55273 C21.0638358,12.4728347 20.8735563,12.4842576 20.7244678,12.5826957 C20.5753793,12.6811339 20.4901321,12.8516323 20.5008378,13.0299657 C20.5115435,13.2082992 20.6165758,13.3673747 20.77637,13.44727 Z M29.5,20 C29.5,21.3807119 28.3807119,22.5 27,22.5 C25.6192881,22.5 24.5,21.3807119 24.5,20 C24.5,18.6192881 25.6192881,17.5 27,17.5 C28.3800403,17.5016201 29.4983799,18.6199597 29.5,20 L29.5,20 Z" fill="#BDDCF3" id="Shape"/><path d="M27,60 C26.6192419,59.9999922 26.2715056,59.783822 26.103,59.44238 L24.791,56.7832 L21.85643,56.35693 C21.4796521,56.3022382 21.1665918,56.038394 21.0488684,55.676325 C20.9311451,55.314256 21.0291736,54.9167501 21.30174,54.65093 L23.42527,52.5811 L22.92381,49.65825 C22.8595281,49.2830476 23.0138023,48.9038828 23.3217804,48.6801451 C23.6297584,48.4564074 24.0380416,48.4268896 24.375,48.604 L27,49.98438 L29.625,48.604 C29.9619482,48.4269102 30.3702087,48.4564303 30.6781753,48.6801522 C30.9861419,48.903874 31.1404235,49.2830115 31.07617,49.6582 L30.57471,52.58105 L32.69824,54.65088 C32.9708064,54.9167001 33.0688349,55.314206 32.9511116,55.676275 C32.8333882,56.038344 32.5203279,56.3021882 32.14355,56.35688 L29.209,56.7832 L27.897,59.44238 C27.7284944,59.783822 27.3807581,59.9999922 27,60 L27,60 Z M24.14893,54.669 L25.59863,54.87944 C25.9245571,54.9267628 26.2063152,55.131464 26.35205,55.42681 L27,56.74023 L27.648,55.42676 C27.7937348,55.131414 28.0754929,54.9267128 28.40142,54.87939 L29.85112,54.66895 L28.80181,53.64648 C28.566307,53.4165797 28.4587928,53.0856444 28.51421,52.76123 L28.76221,51.31738 L27.46533,51.99951 C27.1740547,52.1528335 26.8259453,52.1528335 26.53467,51.99951 L25.23779,51.31738 L25.48579,52.76123 C25.5412072,53.0856444 25.433693,53.4165797 25.19819,53.64648 L24.14893,54.669 Z" fill="#A0C7E7" id="Shape"/><path d="M8.57666,23.93164 C8.34317932,23.9315788 8.11707252,23.8498611 7.9375,23.70064 L5.65674,21.80464 L2.80225,22.60884 C2.4359509,22.7120386 2.04282837,22.5983168 1.78819615,22.3154964 C1.53356393,22.0326759 1.46158983,21.629814 1.60254,21.27632 L2.7002,18.52148 L1.05371,16.05518 C0.842275568,15.7386764 0.828880232,15.3295778 1.01915709,14.9999208 C1.20943394,14.6702638 1.57037694,14.4772318 1.9502,14.502 L4.90967,14.69487 L6.74609,12.36724 C6.9818095,12.0683817 7.36674177,11.9292399 7.73907015,12.0083066 C8.11139853,12.0873734 8.40656563,12.3709393 8.50049,12.7398 L9.23096,15.6138 L12.01318,16.64114 C12.3702522,16.7730564 12.621454,17.0962698 12.6611445,17.4748556 C12.700835,17.8534413 12.5221291,18.2217258 12.20018,18.42483 L9.69334,20.00783 L9.57566,22.97121 C9.55460161,23.5076813 9.11354441,23.9317187 8.57666,23.93166 L8.57666,23.93164 Z M5.8916,19.69971 C6.12507152,19.6998234 6.35116114,19.7815349 6.53076,19.93071 L7.65771,20.86724 L7.71582,19.40337 C7.72864806,19.0744021 7.90270244,18.7728657 8.18115,18.59722 L9.41943,17.81548 L8.04492,17.30767 C7.73623606,17.1937348 7.5034107,16.9351609 7.42236,16.61626 L7.06152,15.19634 L6.1543,16.34624 C5.94784055,16.6012318 5.63185825,16.7420727 5.3042,16.72515 L3.8418,16.62993 L4.65527,17.84819 C4.83804157,18.1218085 4.87438329,18.467872 4.75244,18.77349 L4.21044,20.13433 L5.6206,19.73733 C5.70875383,19.7122937 5.7999599,19.6996326 5.8916,19.69971 L5.8916,19.69971 Z" fill="#A0C7E7" id="Shape"/><path d="M46.46875,48.01367 C46.0114966,48.0134219 45.6125521,47.7033101 45.49951,47.26025 L44.76904,44.38625 L41.98682,43.35891 C41.6297478,43.2269936 41.378546,42.9037802 41.3388555,42.5251944 C41.299165,42.1466087 41.4778709,41.7783242 41.79982,41.57522 L44.30666,39.99222 L44.42434,37.02884 C44.4392975,36.6485002 44.668926,36.3096489 45.0166423,36.154809 C45.3643587,35.9999691 45.7698329,36.0560059 46.06252,36.29935 L48.34328,38.19535 L51.19777,37.39115 C51.5640691,37.2879514 51.9571916,37.4016732 52.2118239,37.6844936 C52.4664561,37.9673141 52.5384302,38.370176 52.39748,38.72367 L51.2998,41.47852 L52.94629,43.94482 C53.1575982,44.2613206 53.1710514,44.6702968 52.981,45 C52.7923808,45.3314319 52.4302197,45.5251217 52.04984,45.498 L49.09037,45.30513 L47.25395,47.63276 C47.0644029,47.8733291 46.7750204,48.013712 46.46875,48.01367 L46.46875,48.01367 Z M44.58057,42.18457 L45.95508,42.69238 C46.2637639,42.8063152 46.4965893,43.0648891 46.57764,43.38379 L46.93848,44.80371 L47.8457,43.65381 C48.0490184,43.3947587 48.3672226,43.2529274 48.6958,43.2749 L50.1582,43.37012 L49.34473,42.15186 C49.1619584,41.8782415 49.1256167,41.532178 49.24756,41.22656 L49.78956,39.86572 L48.3794,40.26272 C48.0627184,40.3530418 47.7218595,40.2806268 47.46925,40.06936 L46.34225,39.13283 L46.28414,40.5967 C46.2713119,40.9256679 46.0972576,41.2272043 45.81881,41.40285 L44.58057,42.18457 Z" fill="#A0C7E7" id="Shape"/><path d="M30.24023,36.62012 C30.0849902,36.6200495 29.9318856,36.5839454 29.79297,36.51465 L27,35.11816 L24.207,36.51465 C23.9066171,36.6647536 23.550953,36.6540891 23.2601034,36.4862575 C22.9692537,36.318426 22.7820445,36.0158315 22.76169,35.68065 L22.57224,32.55956 L19.959,30.83447 C19.6785546,30.6494694 19.5097925,30.3359686 19.5097925,30 C19.5097925,29.6640314 19.6785546,29.3505306 19.959,29.16553 L22.57229,27.44043 L22.76174,24.31934 C22.7820945,23.9841585 22.9693037,23.681564 23.2601534,23.5137325 C23.551003,23.3459009 23.9066671,23.3352364 24.20705,23.48534 L27,24.88184 L29.793,23.48535 C30.0933829,23.3352464 30.449047,23.3459109 30.7398966,23.5137425 C31.0307463,23.681574 31.2179555,23.9841685 31.23831,24.31935 L31.42776,27.44044 L34.04105,29.16554 C34.3214954,29.3505406 34.4902575,29.6640414 34.4902575,30.00001 C34.4902575,30.3359786 34.3214954,30.6494794 34.04105,30.83448 L31.42776,32.55958 L31.23831,35.68067 C31.2062668,36.2084133 30.7689752,36.620034 30.24026,36.62013 L30.24023,36.62012 Z M27,33 C27.155256,32.9999593 27.3083889,33.0360693 27.44727,33.10547 L29.33398,34.04883 L29.46191,31.93945 C29.4809106,31.6254676 29.6466134,31.3387488 29.90918,31.16553 L31.6748,30 L29.90918,28.83447 C29.6466134,28.6612512 29.4809106,28.3745324 29.46191,28.06055 L29.334,25.95117 L27.44729,26.89453 C27.1656913,27.03516 26.8343487,27.03516 26.55275,26.89453 L24.666,25.95117 L24.53807,28.06055 C24.5190694,28.3745324 24.3533666,28.6612512 24.0908,28.83447 L22.3252,30 L24.09082,31.16553 C24.3533866,31.3387488 24.5190894,31.6254676 24.53809,31.93945 L24.66602,34.04883 L26.55273,33.10547 C26.6916111,33.0360693 26.844744,32.9999593 27,33 Z" fill="#A0C7E7" id="Shape"/><path d="M7.53125,48.01367 C7.22500214,48.0137118 6.93563845,47.8733493 6.74609,47.63281 L4.90967,45.30518 L1.9502,45.49805 C1.57094211,45.5198864 1.21137673,45.3275738 1.019,45 C0.828936614,44.6703043 0.842374321,44.2613283 1.05367,43.94482 L2.70016,41.47852 L1.60254,38.72363 C1.46158983,38.370136 1.53356393,37.9672741 1.78819615,37.6844536 C2.04282837,37.4016332 2.4359509,37.2879114 2.80225,37.39111 L5.65674,38.19531 L7.9375,36.29931 C8.23018707,36.0559659 8.63566132,35.9999291 8.98337767,36.154769 C9.33109403,36.3096089 9.56072254,36.6484602 9.57568,37.0288 L9.69336,39.99218 L12.2002,41.57518 C12.5221491,41.7782842 12.700855,42.1465687 12.6611645,42.5251544 C12.621474,42.9037402 12.3702722,43.2269536 12.0132,43.35887 L9.231,44.38623 L8.50053,47.26023 C8.38748792,47.7032901 7.98854341,48.0134019 7.53129,48.01365 L7.53125,48.01367 Z M5.36914,43.273 C5.67540597,43.2728793 5.96480227,43.4132577 6.1543,43.65386 L7.06152,44.80376 L7.42236,43.38384 C7.5034107,43.0649391 7.73623606,42.8063652 8.04492,42.69243 L9.41943,42.18462 L8.18115,41.40288 C7.90270244,41.2272343 7.72864806,40.9256979 7.71582,40.59673 L7.65771,39.13286 L6.53076,40.06939 C6.27813542,40.2806259 5.93729275,40.3530374 5.62061,40.26275 L4.21045,39.86575 L4.75245,41.22659 C4.87439329,41.532208 4.83805157,41.8782715 4.65528,42.15189 L3.8418,43.37012 L5.3042,43.2749 C5.32568,43.27344 5.34766,43.273 5.36914,43.273 Z" fill="#A0C7E7" id="Shape"/><path d="M45.42334,23.93164 C44.8864556,23.9316987 44.4453984,23.5076613 44.42434,22.97119 L44.30666,20.00781 L41.79982,18.42481 C41.4778709,18.2217058 41.299165,17.8534213 41.3388555,17.4748356 C41.378546,17.0962498 41.6297478,16.7730364 41.98682,16.64112 L44.769,15.61377 L45.49947,12.73977 C45.5933944,12.3709093 45.8885615,12.0873434 46.2608899,12.0082766 C46.6332182,11.9292099 47.0181505,12.0683517 47.25387,12.36721 L49.09029,14.69484 L52.0498,14.502 C52.4296398,14.4772174 52.7906037,14.6702556 52.9808848,14.9999305 C53.1711659,15.3296055 53.1577541,15.7387251 52.94629,16.05523 L51.2998,18.52153 L52.39746,21.27642 C52.5384102,21.629914 52.4664361,22.0327759 52.2118039,22.3155964 C51.9571716,22.5984168 51.5640491,22.7121386 51.19775,22.60894 L48.34326,21.80474 L46.0625,23.70074 C45.8829137,23.8499251 45.6568083,23.9316069 45.42334,23.93164 L45.42334,23.93164 Z M44.58057,17.81543 L45.81885,18.59717 C46.0972976,18.7728157 46.2713519,19.0743521 46.28418,19.40332 L46.34229,20.86719 L47.46929,19.93066 C47.7222588,19.7201325 48.0627308,19.6477997 48.37944,19.7373 L49.7896,20.1343 L49.2476,18.77346 C49.1256567,18.467842 49.1619984,18.1217785 49.34477,17.84816 L50.15824,16.6299 L48.69584,16.72512 C48.3677056,16.7446316 48.0505924,16.6032866 47.84574,16.34621 L46.93852,15.19631 L46.57768,16.61623 C46.4966293,16.9351309 46.2638039,17.1937048 45.95512,17.30764 L44.58057,17.81543 Z" fill="#A0C7E7" id="Shape"/><path d="M27,60 C26.6192419,59.9999922 26.2715056,59.783822 26.103,59.44238 L24.791,56.7832 L21.85643,56.35693 C21.4796521,56.3022382 21.1665918,56.038394 21.0488684,55.676325 C20.9311451,55.314256 21.0291736,54.9167501 21.30174,54.65093 L23.42527,52.5811 L22.92381,49.65825 C22.8595281,49.2830476 23.0138023,48.9038828 23.3217804,48.6801451 C23.6297584,48.4564074 24.0380416,48.4268896 24.375,48.604 L27,49.98438 L29.625,48.604 C29.9619482,48.4269102 30.3702087,48.4564303 30.6781753,48.6801522 C30.9861419,48.903874 31.1404235,49.2830115 31.07617,49.6582 L30.57471,52.58105 L32.69824,54.65088 C32.9708064,54.9167001 33.0688349,55.314206 32.9511116,55.676275 C32.8333882,56.038344 32.5203279,56.3021882 32.14355,56.35688 L29.209,56.7832 L27.897,59.44238 C27.7284944,59.783822 27.3807581,59.9999922 27,60 L27,60 Z M24.14893,54.669 L25.59863,54.87944 C25.9245571,54.9267628 26.2063152,55.131464 26.35205,55.42681 L27,56.74023 L27.648,55.42676 C27.7937348,55.131414 28.0754929,54.9267128 28.40142,54.87939 L29.85112,54.66895 L28.80181,53.64648 C28.566307,53.4165797 28.4587928,53.0856444 28.51421,52.76123 L28.76221,51.31738 L27.46533,51.99951 C27.1740547,52.1528335 26.8259453,52.1528335 26.53467,51.99951 L25.23779,51.31738 L25.48579,52.76123 C25.5412072,53.0856444 25.433693,53.4165797 25.19819,53.64648 L24.14893,54.669 Z" fill="#A0C7E7" id="Shape"/><path d="M30.09033,11.51074 C29.9282257,11.5106681 29.7685554,11.471297 29.625,11.396 L27,10.01562 L24.375,11.396 C24.0380518,11.5730898 23.6297913,11.5435697 23.3218247,11.3198478 C23.0138581,11.096126 22.8595765,10.7169885 22.92383,10.3418 L23.42529,7.419 L21.30176,5.34912 C21.0291632,5.08330341 20.9311149,4.68577813 21.0488411,4.3236897 C21.1665674,3.96160127 21.4796505,3.69774761 21.85645,3.64307 L24.791,3.2168 L26.103,0.55762 C26.2903949,0.240330255 26.6314736,0.0456505233 26.99997,0.0456505233 C27.3684664,0.0456505233 27.7095451,0.240330255 27.89694,0.55762 L29.209,3.2168 L32.14357,3.64307 C32.5203695,3.69774761 32.8334526,3.96160127 32.9511789,4.3236897 C33.0689051,4.68577813 32.9708568,5.08330341 32.69826,5.34912 L30.57471,7.419 L31.07617,10.34185 C31.1259726,10.6324075 31.0450347,10.9301357 30.8549812,11.1554878 C30.6649277,11.38084 30.3851247,11.510853 30.09033,11.51079 L30.09033,11.51074 Z M27,7.88574 C27.1621261,7.8856423 27.3218372,7.92502693 27.46533,8.00049 L28.76221,8.68262 L28.51421,7.23877 C28.4587928,6.91435558 28.566307,6.58342027 28.80181,6.35352 L29.85112,5.33105 L28.40142,5.12061 C28.0754929,5.07328721 27.7937348,4.86858604 27.648,4.57324 L27,3.25977 L26.352,4.57324 C26.2062652,4.86858604 25.9245071,5.07328721 25.59858,5.12061 L24.14888,5.33105 L25.19819,6.35352 C25.433693,6.58342027 25.5412072,6.91435558 25.48579,7.23877 L25.23779,8.68262 L26.53467,8.00049 C26.6781628,7.92502693 26.8378739,7.8856423 27,7.88574 L27,7.88574 Z" fill="#A0C7E7" id="Shape"/></g></g></svg>